<svg width="17" height="17" viewBox="0 0 17 17" fill="none" xmlns="http://www.w3.org/2000/svg">
<path d="M8.5 16C10.4891 16 12.3968 15.2098 13.8033 13.8033C15.2098 12.3968 16 10.4891 16 8.5C16 6.51088 15.2098 4.60322 13.8033 3.1967C12.3968 1.79018 10.4891 1 8.5 1C6.51088 1 4.60322 1.79018 3.1967 3.1967C1.79018 4.60322 1 6.51088 1 8.5C1 10.4891 1.79018 12.3968 3.1967 13.8033C4.60322 15.2098 6.51088 16 8.5 16Z" stroke="#404040" stroke-linecap="round" stroke-linejoin="round"/>
<path d="M6.13135 10.421C6.18172 11.002 6.45805 11.5401 6.90094 11.9195C7.34383 12.2989 7.91792 12.4894 8.49977 12.45C10.4103 12.45 10.8682 11.3526 10.8682 10.421C10.8682 9.48944 10.0787 8.5026 8.49977 8.5026C6.92082 8.5026 6.13135 7.87892 6.13135 6.60786C6.14607 6.31545 6.21979 6.02904 6.34806 5.76586C6.47633 5.50267 6.65651 5.26815 6.87776 5.0764C7.09902 4.88465 7.35676 4.73963 7.63551 4.65007C7.91425 4.5605 8.20823 4.52824 8.49977 4.55523C9.08202 4.53016 9.65179 4.72885 10.0922 5.11053C10.5326 5.49222 10.8102 6.02796 10.8682 6.60786M8.49977 13.6318V12.6055M8.49977 3.36865V4.55207" stroke="#404040" stroke-linecap="round" stroke-linejoin="round"/>
</svg>
