<?xml version="1.0" encoding="UTF-8"?>
<svg id="svg45" xmlns="http://www.w3.org/2000/svg" version="1.1" xmlns:svg="http://www.w3.org/2000/svg" xmlns:xlink="http://www.w3.org/1999/xlink" viewBox="0 0 682.7 682.7">
  <!-- Generator: Adobe Illustrator 29.3.1, SVG Export Plug-In . SVG Version: 2.1.0 Build 151)  -->
  <defs>
    <style>
      .st0, .st1 {
        fill: none;
      }

      .st1 {
        stroke: #000;
        stroke-linecap: round;
        stroke-linejoin: round;
        stroke-width: 26.7px;
      }

      .st2 {
        fill-rule: evenodd;
      }

      .st3 {
        clip-path: url(#clippath);
      }
    </style>
    <clipPath id="clippath">
      <rect class="st0" width="682.7" height="682.7"/>
    </clipPath>
  </defs>
  <g id="g53">
    <g class="st3">
      <path id="path63" class="st1" d="M72.4,33.7h-26.4c-14.1,0-25.5,11.9-25.5,26.7v344.4c0,14.7,11.4,26.7,25.5,26.7h471.5c14.1,0,25.5-11.9,25.5-26.7V60.3c0-14.7-11.4-26.7-25.5-26.7H72.4"/>
      <path id="path67" class="st1" d="M24,364.7h434.1"/>
      <path id="path69" class="st1" d="M235,498h93.5v-66.7h-93.5v66.7Z"/>
      <path id="path73" class="st1" d="M162.8,558h237.9c0-33.1-25.7-60-57.3-60h-123.2c-31.7,0-57.3,26.9-57.3,60Z"/>
      <path id="path77" class="st1" d="M281.7,396.9h.1"/>
      <path id="path81" class="st1" d="M500.5,364.7h0"/>
    </g>
    <path class="st2" d="M539,411.1c-61.8,0-112,50.2-112,112s50.2,112,112,112,112-50.2,112-112-50.2-112-112-112ZM539,443.1c44.2,0,80,35.8,80,80s-35.8,80-80,80-80-35.8-80-80,35.8-80,80-80Z"/>
    <path d="M539,556.4c-1.8,0-3.5-.7-4.9-2l-42.4-42.4c-2.7-2.7-2.7-7.1,0-9.8,2.7-2.7,7.1-2.7,9.8,0l37.5,37.5,37.5-37.5c2.7-2.7,7.1-2.7,9.8,0,2.7,2.7,2.7,7.1,0,9.8l-42.4,42.4c-1.3,1.3-3.1,2-4.9,2Z"/>
  </g>
</svg>