<svg id="Icons" fill="#666666"  height="512" viewBox="0 0 60 60" width="512" xmlns="http://www.w3.org/2000/svg"><path d="m4 11h2v38h-2z"/><rect height="8" rx="2" width="8" x="51" y="51"/><path d="m54 11h2v38h-2z"/><path d="m11 4h38v2h-38z"/><rect height="8" rx="2" width="8" x="1" y="1"/><rect height="8" rx="2" width="8" x="51" y="1"/><rect height="8" rx="2" width="8" x="1" y="51"/><path d="m11 54h38v2h-38z"/><path d="m34 17h8a3 3 0 0 0 3.161 3 3.115 3.115 0 0 0 2.839-3.169v-2.831a3 3 0 0 0 -3-3h-30a3 3 0 0 0 -3 3v2.831a3.115 3.115 0 0 0 2.839 3.169 3 3 0 0 0 3.161-3h8a1 1 0 0 1 1 1v25a1 1 0 0 1 -1 1h-2.83a3.114 3.114 0 0 0 -3.17 2.838 3 3 0 0 0 3 3.162h13.83a3.114 3.114 0 0 0 3.17-2.838 3 3 0 0 0 -3-3.162h-3a1 1 0 0 1 -1-1v-25a1 1 0 0 1 1-1z"/></svg>
