<?xml version="1.0" encoding="utf-8"?>
<!-- Generator: Adobe Illustrator 24.1.2, SVG Export Plug-In . SVG Version: 6.00 Build 0)  -->
<svg version="1.1" id="Layer_1" xmlns="http://www.w3.org/2000/svg" xmlns:xlink="http://www.w3.org/1999/xlink" x="0px" y="0px"
	 viewBox="0 0 37 51.1" style="enable-background:new 0 0 37 51.1;" xml:space="preserve">
<style type="text/css">
	.st0{fill:#B6BD70;}
</style>
<path class="st0" d="M35.8,10.8l0-1.6l-0.3-0.4l-3.4-4.1l-4-4.4H0.6v50h13.7c-0.7-0.6-1.3-1.3-1.8-2H2.6v-46h24.6l0.7,0.8l2.6,3
	l2.3,2.8l0.9,1.1v0.9l0.1,16.3c0.7,0.5,1.4,1.2,2,1.9L35.8,10.8z"/>
<g>
	<rect x="5.2" y="10.4" class="st0" width="16.9" height="2"/>
</g>
<g>
	<rect x="5.2" y="5.1" class="st0" width="3.6" height="2"/>
</g>
<g>
	<rect x="11" y="5.1" class="st0" width="6.8" height="2"/>
</g>
<g>
	<rect x="5.2" y="14.7" class="st0" width="24" height="2"/>
</g>
<g>
	<rect x="5.2" y="43.5" class="st0" width="5.2" height="2"/>
</g>
<g>
</g>
<g>
	<path class="st0" d="M35.8,9.2l-0.3-0.4h-7.5V0.3h-2v10.5h9.9L35.8,9.2z"/>
</g>
<path class="st0" d="M34.3,32.7c-0.9-1.4-2.2-2.6-3.6-3.5c-1.8-1.1-3.9-1.7-6.1-1.7c-6.4,0-11.7,5.2-11.7,11.7
	c0,1.2,0.2,2.3,0.5,3.5c0.8,2.4,2.3,4.6,4.5,6.1c1.7,1.2,3.8,1.9,5.9,2.1c0.3,0,0.6,0,0.8,0c0.3,0,0.5,0,0.8,0
	c2.1-0.2,4.1-0.9,5.9-2.1c1.2-0.9,2.3-1.9,3-3.1c1.3-1.9,1.9-4.1,1.9-6.4C36.3,36.9,35.6,34.6,34.3,32.7z M24.6,29.5
	c4.4,0,8.1,2.9,9.3,6.9c0.3,0.9,0.4,1.8,0.4,2.8c0,0.9-0.1,1.8-0.4,2.7c-0.9,3-3.2,5.5-6.1,6.5c-1,0.3-2.1,0.5-3.2,0.5
	c-1.1,0-2.2-0.2-3.2-0.5c-3.8-1.3-6.5-4.9-6.5-9.2C14.9,33.8,19.2,29.5,24.6,29.5z"/>
<path class="st0" d="M33.9,33c-2-3-5.4-5-9.3-5c-6.2,0-11.2,5-11.2,11.2c0,3.8,1.9,7.1,4.8,9.2c1.6,1.1,3.5,1.8,5.6,2
	c0.3,0,0.5,0,0.8,0c0.3,0,0.5,0,0.8,0c2.1-0.2,4-0.9,5.6-2c1.1-0.8,2.1-1.8,2.9-3c1.2-1.8,1.9-3.9,1.9-6.1
	C35.8,36.9,35.1,34.7,33.9,33z M33.9,41.9c-0.9,3-3.2,5.5-6.1,6.5c-1,0.3-2.1,0.5-3.2,0.5c-1.1,0-2.2-0.2-3.2-0.5
	c-3.8-1.3-6.5-4.9-6.5-9.2c0-5.3,4.3-9.7,9.7-9.7c4.4,0,8.1,2.9,9.3,6.9c0.3,0.9,0.4,1.8,0.4,2.8C34.3,40.1,34.1,41,33.9,41.9z"/>
<path class="st0" d="M27.8,42.8c0.1,0.1,0.3,0.2,0.5,0.2c0.2,0,0.4-0.1,0.6-0.3c0.3-0.3,0.2-0.8-0.1-1l-3.4-2.8v-5.6
	c0-0.4-0.3-0.7-0.7-0.7c-0.4,0-0.7,0.3-0.7,0.7v6c0,0.2,0.1,0.4,0.3,0.6L27.8,42.8z"/>
</svg>
