<svg id="Layer_1" data-name="Layer 1" xmlns="http://www.w3.org/2000/svg" viewBox="0 0 100 100"><defs><style>.cls-1{fill:#f4f3f3;}.cls-2{fill:#adadaf;}</style></defs><path class="cls-1" d="M100,50A50,50,0,0,1,10.44,80.56,50,50,0,0,1,50,0c.33,0,.66,0,1,0A50,50,0,0,1,100,50Z"/><path class="cls-2" d="M72.19,64l-9.64-2.41L62,59.38c6.65-1.12,10.07-3.11,10.22-3.2a1.27,1.27,0,0,0,.13-2.08S67.8,50.35,67.8,37.48c0-10.85-2.54-16.35-7.55-16.35h-.74c-1.81-1.75-3.16-2.52-6.81-2.52-4.72,0-15.09,4.76-15.09,18.87,0,12.87-4.5,16.59-4.53,16.61a1.26,1.26,0,0,0,.1,2.08c.16.09,3.55,2.1,10.24,3.21l-.56,2.23L33.22,64A14.11,14.11,0,0,0,22.51,77.74,1.26,1.26,0,0,0,23.77,79H81.64a1.27,1.27,0,0,0,1.26-1.26A14.12,14.12,0,0,0,72.19,64Z"/></svg>