<svg id="Layer_1" data-name="Layer 1" xmlns="http://www.w3.org/2000/svg" viewBox="0 0 100 100"><defs><style>.cls-1{fill:#f4f3f3;}.cls-2{fill:#adadaf;}</style></defs><path class="cls-1" d="M100,50A50,50,0,0,1,55.29,99.72a50.11,50.11,0,0,1-10.58,0A50,50,0,0,1,49.12,0H50A50,50,0,0,1,100,50Z"/><path class="cls-2" d="M80,77.13l-1.49-6A8.7,8.7,0,0,0,72.8,65L61.86,61.35c-2.67-1.11-3.89-5.41-4.15-7a10.31,10.31,0,0,0,3.65-6.72,2.05,2.05,0,0,1,.3-1.28,1.22,1.22,0,0,0,.85-.74,18.62,18.62,0,0,0,1.34-5.44,1.54,1.54,0,0,0,0-.3A3.26,3.26,0,0,0,62.6,38V31.43c0-4-1.22-5.65-2.51-6.6C59.85,22.9,57.78,19,50.17,19A13,13,0,0,0,37.74,31.43V38a3.19,3.19,0,0,0-1.2,1.81,1,1,0,0,0,0,.3,18.6,18.6,0,0,0,1.33,5.44,1.05,1.05,0,0,0,.75.71c.14.07.4.43.4,1.31a10.32,10.32,0,0,0,3.67,6.73c-.26,1.63-1.47,5.93-4.07,7L27.55,65a8.65,8.65,0,0,0-5.68,6.15l-1.49,6a1.24,1.24,0,0,0,.9,1.51,1,1,0,0,0,.3,0H78.76A1.25,1.25,0,0,0,80,77.43,1.36,1.36,0,0,0,80,77.13Z"/></svg>