<svg id="Layer_1" data-name="Layer 1" xmlns="http://www.w3.org/2000/svg" viewBox="0 0 45 55"><defs><style>.cls-1{fill:#0098aa;}</style></defs><path class="cls-1" d="M43.76,13.44l-1.37-1.32L32.45,2.56,31.07,1.23A.79.79,0,0,0,30.5,1h-26A3,3,0,0,0,1.46,4v47.1a3,3,0,0,0,3.06,3H40.93a3,3,0,0,0,3.07-3V14A.79.79,0,0,0,43.76,13.44Zm-2.5-.22H32.77a1.43,1.43,0,0,1-1.46-1.4V3.65Zm1.13,37.83a1.43,1.43,0,0,1-1.46,1.4H4.52A1.43,1.43,0,0,1,3.07,51V4a1.42,1.42,0,0,1,1.45-1.4H29.7v9.25a3,3,0,0,0,3.07,2.95h9.62V51.05Z"/><path class="cls-1" d="M18.59,37.9H35.17v2.81H18.59Z"/><path class="cls-1" d="M18.59,43.53h14v2.81h-14Z"/><path class="cls-1" d="M14.44,46.82H8.65a2.29,2.29,0,0,1-2.29-2.28v-5.8a2.29,2.29,0,0,1,2.29-2.28h5.79a2.29,2.29,0,0,1,2.29,2.28v5.8A2.29,2.29,0,0,1,14.44,46.82ZM8.65,38.53a.22.22,0,0,0-.22.21v5.8a.21.21,0,0,0,.22.21h5.79a.21.21,0,0,0,.21-.21v-5.8a.21.21,0,0,0-.21-.21Z"/><path class="cls-1" d="M18.87,24.65H36v2.81H18.87Z"/><path class="cls-1" d="M18.87,30.28H33.44v2.81H18.87Z"/><path class="cls-1" d="M14.44,34.39H8.65a2.29,2.29,0,0,1-2.29-2.28v-5.8A2.29,2.29,0,0,1,8.65,24h5.79a2.29,2.29,0,0,1,2.29,2.28v5.8A2.29,2.29,0,0,1,14.44,34.39ZM8.65,26.1a.21.21,0,0,0-.22.21v5.8a.22.22,0,0,0,.22.21h5.79a.21.21,0,0,0,.21-.21v-5.8a.21.21,0,0,0-.21-.21Z"/></svg>