<svg id="Layer_1" data-name="Layer 1" xmlns="http://www.w3.org/2000/svg" viewBox="0 0 45 46.4"><defs><style>.cls-1,.cls-2{fill:#b5bc65;}.cls-2{stroke:#b5bc65;stroke-miterlimit:10;stroke-width:1.19px;}</style></defs><path class="cls-1" d="M23.9,19A10.44,10.44,0,0,0,26.6,4.5,10.43,10.43,0,0,0,9.4,16.3,8.7,8.7,0,0,0,12.1,19,18.2,18.2,0,0,0,0,36H2.8A15.19,15.19,0,0,1,18,20.8a15.59,15.59,0,0,1,8.4,2.5,10.49,10.49,0,0,1,2.8-1.4A18.27,18.27,0,0,0,23.9,19ZM18,18a7.6,7.6,0,1,1,7.6-7.6A7.6,7.6,0,0,1,18,18Z"/><g id="_2-Magnifying_Glass" data-name="2-Magnifying Glass"><path class="cls-2" d="M43.75,44.35l-4.87-4.87a9.37,9.37,0,1,0-.88.88l4.87,4.87a.63.63,0,0,0,.88,0A.63.63,0,0,0,43.75,44.35ZM26.12,39.06a8.11,8.11,0,1,1,5.73,2.37A8.06,8.06,0,0,1,26.12,39.06Z"/></g><path class="cls-1" d="M31.84,38.05c.29,0,.94-2,1-4.22H30.81C30.9,36,31.56,38.05,31.84,38.05Z"/><path class="cls-1" d="M31.84,28.55c-.28,0-.94,2-1,4.22h2.07C32.78,30.57,32.13,28.55,31.84,28.55Z"/><path class="cls-1" d="M33.14,28.75a11.78,11.78,0,0,1,.8,4h2.6A4.72,4.72,0,0,0,33.14,28.75Z"/><path class="cls-1" d="M33.14,37.85a4.72,4.72,0,0,0,3.4-4h-2.6A11.83,11.83,0,0,1,33.14,37.85Z"/><path class="cls-1" d="M27.14,33.83a4.73,4.73,0,0,0,3.41,4,12.08,12.08,0,0,1-.81-4Z"/><path class="cls-1" d="M27.14,32.77h2.6a12,12,0,0,1,.81-4A4.73,4.73,0,0,0,27.14,32.77Z"/></svg>