<?xml version="1.0" encoding="utf-8"?>
<!-- Generator: Adobe Illustrator 24.1.2, SVG Export Plug-In . SVG Version: 6.00 Build 0)  -->
<svg version="1.1" id="Layer_1" xmlns="http://www.w3.org/2000/svg" xmlns:xlink="http://www.w3.org/1999/xlink" x="0px" y="0px"
	 viewBox="0 0 16 18" style="enable-background:new 0 0 16 18;" xml:space="preserve">
<style type="text/css">
	.st0{fill:#48647F;}
</style>
<g>
	<path class="st0" d="M8.5,15.8c-0.2,0-0.4-0.1-0.5-0.2l-4.2-4.2l4.2-4.2c0.3-0.3,0.7-0.3,1,0c0.3,0.3,0.3,0.7,0,1l-3.3,3.2L9,14.6
		c0.3,0.3,0.3,0.7,0,1C8.9,15.7,8.7,15.8,8.5,15.8z"/>
</g>
<g>
	<path class="st0" d="M15.6,11.5c0,0.4-0.3,0.7-0.7,0.7h0L6,12.1c-0.4,0-0.7-0.3-0.7-0.7c0-0.4,0.3-0.7,0.7-0.7h0l6.3,0.1l1.8,0
		l0.8,0C15.3,10.8,15.6,11.1,15.6,11.5z"/>
</g>
<path class="st0" d="M14.9,9.5V6.1c0-3.3-2.7-6-6.1-6H3.4c-1.6,0-3,1.3-3,2.9v11.9c0,1.6,1.3,2.9,3,2.9h8.5c1.6,0,3-1.3,3-2.9v-0.3
	v0v-1.2h-1.5v1.2h0v0.3c0,0.8-0.7,1.5-1.5,1.5H3.4c-0.8,0-1.5-0.7-1.5-1.5V3.1c0-0.8,0.7-1.5,1.5-1.5h5.4c2.5,0,4.6,2.1,4.6,4.6v3.4
	H14.9z"/>
<polygon class="st0" points="14.1,10.8 12.3,10.8 12.3,10.8 "/>
</svg>
