<svg xmlns="http://www.w3.org/2000/svg" width="14.9" height="13.925" viewBox="0 0 14.9 13.925">
  <g id="org-icon-4" transform="translate(-0.2 -0.5)">
    <g id="Group_2" data-name="Group 2">
      <circle id="Ellipse_2" data-name="Ellipse 2" cx="1.4" cy="1.4" r="1.4" transform="translate(6 0.5)" fill="#007bff"/>
      <path id="Path_20" data-name="Path 20" d="M5.6,5.6a.864.864,0,0,1-.6.3.349.349,0,0,0-.1-.2c0-.1-.1-.3-.1-.4a1.893,1.893,0,0,1,.9-1.6.891.891,0,0,1,.5.8A1.149,1.149,0,0,1,5.6,5.6Z" fill="#007bff"/>
      <path id="Path_21" data-name="Path 21" d="M7.2,6.9H5.9a1.562,1.562,0,0,1-.8-.8A.349.349,0,0,1,5,5.9h.7A1.817,1.817,0,0,1,7.2,6.9Z" fill="#007bff"/>
      <path id="Path_22" data-name="Path 22" d="M9.2,5.7A2.365,2.365,0,0,0,7.8,6.9H7.5A2.041,2.041,0,0,0,6,5.7a1.594,1.594,0,0,0,.4-1.2A1.5,1.5,0,0,0,6,3.4a1.7,1.7,0,0,1,.7-.1H8.1a2.92,2.92,0,0,1,.9.2,1.689,1.689,0,0,0-.3,1A1.656,1.656,0,0,0,9.2,5.7Z" fill="#007bff"/>
      <path id="Path_23" data-name="Path 23" d="M10,5.9c-.1.1-.1.1-.1.2a3.044,3.044,0,0,1-.8.8h-1a1.38,1.38,0,0,1,.3-.4,2.384,2.384,0,0,1,1.1-.6H10Z" fill="#007bff"/>
      <path id="Path_24" data-name="Path 24" d="M10.1,5.2a.6.6,0,0,1-.1.4c0,.1,0,.1-.1.2a.52.52,0,0,1-.4-.2A1.29,1.29,0,0,1,9,4.5a1.613,1.613,0,0,1,.3-.9A2.088,2.088,0,0,1,10.1,5.2Z" fill="#007bff"/>
    </g>
    <path id="Path_25" data-name="Path 25" d="M6.2,4.5a1.149,1.149,0,0,1-.6,1.1.864.864,0,0,1-.6.3H4.8A1.884,1.884,0,0,1,4,5.7a1.425,1.425,0,0,1-.6-1.2A1.367,1.367,0,0,1,4.8,3.1a1.231,1.231,0,0,1,1,.5A1.489,1.489,0,0,1,6.2,4.5Z" fill="#007bff"/>
    <path id="Path_26" data-name="Path 26" d="M2.5,6.9a1.38,1.38,0,0,1,.3-.4,2.384,2.384,0,0,1,1.1-.6H5.7a1.781,1.781,0,0,1,1.6,1Z" fill="#007bff"/>
    <path id="Path_27" data-name="Path 27" d="M11.8,4.5a1.149,1.149,0,0,1-.6,1.1,1.136,1.136,0,0,1-.8.3.6.6,0,0,1-.4-.1.52.52,0,0,1-.4-.2A1.149,1.149,0,0,1,9,4.5a1.613,1.613,0,0,1,.3-.9,1.433,1.433,0,0,1,1.1-.5A1.506,1.506,0,0,1,11.8,4.5Z" fill="#007bff"/>
    <path id="Path_28" data-name="Path 28" d="M8.1,6.9a1.38,1.38,0,0,1,.3-.4,2.384,2.384,0,0,1,1.1-.6h1.8a1.781,1.781,0,0,1,1.6,1Z" fill="#007bff"/>
    <path id="Path_29" data-name="Path 29" d="M9.8,7.3a21.052,21.052,0,0,1-.2,2.5A5.019,5.019,0,0,1,9.4,11H5.8c-.1-.4-.1-.8-.2-1.2a21.75,21.75,0,0,1-.1-2.5Z" fill="#007bff" fill-rule="evenodd"/>
    <path id="Path_30" data-name="Path 30" d="M5.3,11H3.5a.349.349,0,0,1-.2-.1A6.971,6.971,0,0,1,2.7,9a4.954,4.954,0,0,1-.2-1.7V7.2H4.9c.1.9.2,1.7.3,2.5A5.283,5.283,0,0,0,5.3,11Z" fill="#007bff" fill-rule="evenodd"/>
    <path id="Path_31" data-name="Path 31" d="M12.8,7.3a3.4,3.4,0,0,1-.1,1c0,.3-.1.5-.1.8a12.091,12.091,0,0,1-.5,1.8.215.215,0,0,1-.2.2H10c0-.4.1-.8.1-1.2.1-.8.1-1.6.2-2.5h2.5Z" fill="#007bff" fill-rule="evenodd"/>
    <path id="Path_32" data-name="Path 32" d="M9.4,11.5A5.638,5.638,0,0,1,9,12.7l-.6,1.2-.3.3c-.3.3-.6.3-1,0a1.38,1.38,0,0,1-.3-.4A8.955,8.955,0,0,1,6,11.5Z" fill="#007bff" fill-rule="evenodd"/>
    <path id="Path_33" data-name="Path 33" d="M2.7,11H1.4l-.1-.1A7.589,7.589,0,0,1,.2,7.3V7.2H2A9.857,9.857,0,0,0,2.7,11Z" fill="#007bff" fill-rule="evenodd"/>
    <path id="Path_34" data-name="Path 34" d="M15.1,7.3a4.477,4.477,0,0,1-.4,2c-.2.5-.5,1-.7,1.6,0,.1-.1.1-.2.1H12.5a11.668,11.668,0,0,0,.8-3.7h1.8Z" fill="#007bff" fill-rule="evenodd"/>
    <path id="Path_35" data-name="Path 35" d="M6.5,14.2c-.8,0-2.5-1.6-3-2.7H5.4A8.083,8.083,0,0,0,6.5,14.2Z" fill="#007bff" fill-rule="evenodd"/>
    <path id="Path_36" data-name="Path 36" d="M11.8,11.5a5.482,5.482,0,0,1-3,2.8,7.454,7.454,0,0,0,1.1-2.8Z" fill="#007bff" fill-rule="evenodd"/>
    <path id="Path_37" data-name="Path 37" d="M13.6,11.5a7.8,7.8,0,0,1-3,2.4l.5-.5a6.57,6.57,0,0,0,1.2-1.7c.1-.1.1-.2.3-.2Z" fill="#007bff" fill-rule="evenodd"/>
    <path id="Path_38" data-name="Path 38" d="M4.7,13.8a7.561,7.561,0,0,1-3-2.3H2.9l.1.1A7.231,7.231,0,0,0,4.7,13.8Z" fill="#007bff" fill-rule="evenodd"/>
  </g>
</svg>
