<svg id="Layer_1" data-name="Layer 1" xmlns="http://www.w3.org/2000/svg" viewBox="0 0 41.41 43.31"><path d="M34,4H4V47.31H6.86V6.89H34A1.71,1.71,0,0,1,35.73,8.6v22h2.89V8.6A4.6,4.6,0,0,0,34,4Z" transform="translate(-3.98 -4)"/><path d="M37.71,35.77v4.07A3.19,3.19,0,0,1,34.53,43h-13v3.76H34.53a7,7,0,0,0,6.94-6.95V35.77Z" transform="translate(-3.98 -4)"/><polygon points="35.42 33.79 29.43 33.79 32.43 30.88 35.42 27.97 38.41 30.88 41.41 33.79 35.42 33.79"/><path d="M16.48,37.21V33.14A3.19,3.19,0,0,1,19.66,30H32.71V26.19h-13a7,7,0,0,0-6.94,7v4.07Z" transform="translate(-3.98 -4)"/><polygon points="10.82 31.19 16.8 31.19 13.81 34.1 10.82 37.01 7.83 34.1 4.83 31.19 10.82 31.19"/></svg>