<?xml version="1.0" encoding="utf-8"?>
<!-- Generator: Adobe Illustrator 24.1.2, SVG Export Plug-In . SVG Version: 6.00 Build 0)  -->
<svg version="1.1" id="Layer_1" xmlns="http://www.w3.org/2000/svg" xmlns:xlink="http://www.w3.org/1999/xlink" x="0px" y="0px"
	 viewBox="0 0 14.33 13" style="enable-background:new 0 0 14.33 13;" xml:space="preserve">
<style type="text/css">
	.st0{fill:none;stroke:#202523;stroke-width:0.75;stroke-miterlimit:10;}
	.st1{fill:none;stroke:#202523;stroke-width:0.5;stroke-miterlimit:10;}
</style>
<path class="st0" d="M7.14,0.94c0.79,0,1.49,0.39,1.91,0.99C9.33,2.32,9.49,2.79,9.49,3.3c0,0.63-0.25,1.2-0.65,1.63
	C8.8,4.97,8.76,5.01,8.72,5.05C8.63,5.13,8.54,5.2,8.44,5.27C8.38,5.25,8.32,5.24,8.25,5.23C7.89,5.15,7.52,5.11,7.14,5.11"/>
<path class="st0" d="M7.14,5.11c0.38,0,0.75,0.04,1.11,0.12c0.07,0.01,0.13,0.02,0.19,0.04C9.09,5.43,9.7,5.72,10.23,6.1
	c1.01,0.73,1.77,1.8,2.06,3.05c0.07,0.24,0.12,0.49,0.14,0.75c0.02,0.17,0.03,0.35,0.03,0.52c0,0.11-0.01,0.23-0.01,0.34H7.14"/>
<path class="st1" d="M8.84,4.93c0.02,0.03,0.05,0.04,0.07,0.06C9.23,4.91,9.56,4.87,9.9,4.87c0.34,0,0.66,0.04,0.98,0.12
	c0.48-0.32,0.8-0.87,0.8-1.49c0-0.99-0.8-1.79-1.78-1.79c-0.31,0-0.6,0.08-0.85,0.22"/>
<path class="st1" d="M12.29,9.15h1.63c0-0.08,0.01-0.17,0.01-0.25c0-1.89-1.3-3.47-3.05-3.91c-0.32-0.08-0.64-0.12-0.98-0.12
	c-0.34,0-0.67,0.04-0.99,0.12C8.85,5.01,8.78,5.02,8.72,5.05C8.56,5.09,8.4,5.15,8.25,5.23"/>
<path class="st0" d="M7.16,0.94c-0.79,0-1.49,0.39-1.91,0.99C4.97,2.32,4.82,2.79,4.82,3.3c0,0.63,0.25,1.2,0.65,1.63
	c0.04,0.04,0.08,0.08,0.12,0.12C5.68,5.13,5.76,5.2,5.86,5.27c0.06-0.02,0.12-0.03,0.19-0.04c0.36-0.08,0.73-0.12,1.11-0.12"/>
<path class="st0" d="M7.16,5.11c-0.38,0-0.75,0.04-1.11,0.12C5.99,5.24,5.93,5.25,5.86,5.27C5.22,5.43,4.61,5.72,4.07,6.1
	C3.07,6.83,2.31,7.9,2.02,9.15C1.95,9.39,1.89,9.64,1.88,9.9c-0.02,0.17-0.03,0.35-0.03,0.52c0,0.11,0.01,0.23,0.01,0.34h5.31"/>
<path class="st1" d="M5.47,4.93C5.45,4.96,5.41,4.97,5.39,4.99C5.07,4.91,4.74,4.87,4.41,4.87c-0.34,0-0.66,0.04-0.98,0.12
	c-0.48-0.32-0.8-0.87-0.8-1.49c0-0.99,0.8-1.79,1.78-1.79c0.31,0,0.6,0.08,0.85,0.22"/>
<path class="st1" d="M2.02,9.15H0.38c0-0.08-0.01-0.17-0.01-0.25c0-1.89,1.3-3.47,3.05-3.91c0.32-0.08,0.64-0.12,0.98-0.12
	c0.34,0,0.67,0.04,0.99,0.12c0.06,0.02,0.13,0.03,0.19,0.06c0.16,0.04,0.32,0.1,0.47,0.18"/>
</svg>
