<?xml version="1.0" encoding="utf-8"?>
<!-- Generator: Adobe Illustrator 16.0.0, SVG Export Plug-In . SVG Version: 6.00 Build 0)  -->
<!DOCTYPE svg PUBLIC "-//W3C//DTD SVG 1.1//EN" "http://www.w3.org/Graphics/SVG/1.1/DTD/svg11.dtd">
<svg version="1.1" id="Layer_1" xmlns="http://www.w3.org/2000/svg" xmlns:xlink="http://www.w3.org/1999/xlink" x="0px" y="0px"
	 width="15.313px" height="15.313px" viewBox="0 0 15.313 15.313" enable-background="new 0 0 15.313 15.313" xml:space="preserve">
<g>
	<circle fill="#9E9E9E" cx="7.401" cy="1.914" r="1.392"/>
	<path fill="#9E9E9E" d="M5.603,5.649C5.427,5.778,5.221,5.864,4.999,5.896C4.967,5.816,4.942,5.732,4.926,5.649
		C4.892,5.513,4.875,5.371,4.875,5.225c0-0.704,0.376-1.32,0.942-1.649c0.231,0.249,0.372,0.579,0.372,0.942
		C6.189,4.987,5.96,5.401,5.603,5.649z"/>
	<path fill="#9E9E9E" d="M7.242,6.897H5.855C5.541,6.723,5.281,6.458,5.11,6.141C5.07,6.067,5.033,5.993,5.003,5.911h0.561
		c0.039,0,0.076,0,0.113,0.004C6.353,5.954,6.931,6.34,7.242,6.897z"/>
	<path fill="#9E9E9E" d="M9.221,5.714C8.582,5.877,8.058,6.317,7.782,6.897H7.533c-0.294-0.62-0.873-1.081-1.568-1.21
		C6.266,5.39,6.45,4.973,6.45,4.519c0-0.405-0.146-0.777-0.39-1.065c0.226-0.095,0.475-0.147,0.734-0.147h1.374
		c0.313,0,0.611,0.076,0.872,0.216C8.83,3.799,8.704,4.144,8.704,4.519C8.704,4.989,8.903,5.416,9.221,5.714z"/>
	<path fill="#9E9E9E" d="M9.958,5.911C9.937,5.976,9.907,6.038,9.871,6.099C9.703,6.435,9.435,6.715,9.106,6.897h-1.03
		C8.163,6.74,8.274,6.6,8.399,6.473C8.688,6.181,9.072,5.984,9.5,5.93c0.083-0.014,0.165-0.019,0.252-0.019H9.958z"/>
	<path fill="#9E9E9E" d="M10.087,5.225c0,0.146-0.017,0.288-0.051,0.424c-0.012,0.07-0.034,0.139-0.06,0.206
		C9.825,5.814,9.687,5.746,9.56,5.657C9.203,5.408,8.966,4.989,8.966,4.519c0-0.327,0.115-0.625,0.302-0.864
		C9.763,4,10.087,4.573,10.087,5.225z"/>
</g>
<path fill="#9E9E9E" d="M6.189,4.519c0,0.469-0.229,0.882-0.586,1.13C5.427,5.778,5.221,5.864,4.999,5.896
	c-0.066,0.01-0.133,0.016-0.201,0.016c-0.299,0-0.573-0.095-0.799-0.254C3.641,5.408,3.405,4.989,3.405,4.519
	c0-0.769,0.624-1.393,1.393-1.393c0.406,0,0.77,0.172,1.021,0.45C6.049,3.825,6.189,4.155,6.189,4.519z"/>
<path fill="#9E9E9E" d="M2.515,6.897C2.599,6.74,2.708,6.6,2.834,6.473C3.125,6.181,3.51,5.984,3.939,5.93
	C4.02,5.916,4.103,5.911,4.19,5.911h1.374c0.039,0,0.076,0,0.113,0.004C6.353,5.954,6.931,6.34,7.242,6.897H2.515z"/>
<path fill="#9E9E9E" d="M11.751,4.519c0,0.469-0.229,0.882-0.587,1.13c-0.227,0.165-0.503,0.262-0.805,0.262
	c-0.135,0-0.263-0.018-0.383-0.056C9.825,5.814,9.687,5.746,9.56,5.657C9.203,5.408,8.966,4.989,8.966,4.519
	c0-0.327,0.115-0.625,0.302-0.864c0.254-0.322,0.647-0.529,1.092-0.529C11.129,3.126,11.751,3.75,11.751,4.519z"/>
<path fill="#9E9E9E" d="M8.076,6.897C8.163,6.74,8.274,6.6,8.399,6.473C8.688,6.181,9.072,5.984,9.5,5.93
	c0.083-0.014,0.165-0.019,0.252-0.019h1.373c0.038,0,0.076,0,0.112,0.004h0.004c0.673,0.04,1.254,0.424,1.563,0.982H8.076z"/>
<path fill-rule="evenodd" clip-rule="evenodd" fill="#9E9E9E" d="M9.815,7.266C9.799,8.099,9.754,8.92,9.652,9.741
	c-0.048,0.416-0.109,0.83-0.19,1.247H5.839c-0.082-0.414-0.147-0.831-0.194-1.247c-0.101-0.814-0.144-1.64-0.161-2.476H9.815z"/>
<path fill-rule="evenodd" clip-rule="evenodd" fill="#9E9E9E" d="M5.271,10.984c-0.016,0.004-0.068,0.018-0.123,0.018
	c-0.569,0.001-1.141,0.005-1.713-0.005c-0.07,0-0.182-0.061-0.208-0.12c-0.261-0.618-0.453-1.251-0.573-1.901
	C2.549,8.442,2.494,7.895,2.48,7.34C2.479,7.318,2.489,7.3,2.494,7.266h2.444c0.074,0.833,0.147,1.654,0.22,2.482
	C5.197,10.157,5.234,10.571,5.271,10.984z"/>
<path fill-rule="evenodd" clip-rule="evenodd" fill="#9E9E9E" d="M12.83,7.266c-0.024,0.327-0.033,0.65-0.072,0.967
	c-0.03,0.259-0.069,0.517-0.121,0.771c-0.118,0.629-0.297,1.244-0.546,1.84c-0.044,0.106-0.091,0.163-0.217,0.159
	c-0.585-0.004-1.169-0.001-1.753-0.001c-0.042,0-0.085-0.012-0.097-0.014c0.036-0.414,0.075-0.826,0.112-1.24
	c0.073-0.824,0.146-1.649,0.223-2.482H12.83z"/>
<path fill-rule="evenodd" clip-rule="evenodd" fill="#9E9E9E" d="M9.37,11.517c-0.131,0.425-0.226,0.839-0.381,1.23
	c-0.17,0.419-0.389,0.82-0.6,1.22c-0.059,0.112-0.16,0.206-0.256,0.293c-0.313,0.28-0.64,0.292-0.951,0.012
	c-0.158-0.144-0.298-0.317-0.409-0.5c-0.419-0.692-0.641-1.46-0.825-2.255H9.37z"/>
<path fill-rule="evenodd" clip-rule="evenodd" fill="#9E9E9E" d="M2.729,10.999c-0.465,0-0.894,0.004-1.326-0.002
	c-0.045,0-0.103-0.054-0.128-0.095C0.612,9.809,0.238,8.622,0.186,7.34c0-0.019,0.008-0.04,0.016-0.074h1.767
	C2.01,8.544,2.24,9.784,2.729,10.999z"/>
<path fill-rule="evenodd" clip-rule="evenodd" fill="#9E9E9E" d="M15.113,7.269c-0.02,0.713-0.122,1.398-0.365,2.048
	c-0.199,0.533-0.465,1.037-0.709,1.551c-0.028,0.058-0.111,0.126-0.173,0.127C13.448,11.007,13.032,11,12.57,11
	c0.479-1.208,0.718-2.445,0.758-3.731H15.113z"/>
<path fill-rule="evenodd" clip-rule="evenodd" fill="#9E9E9E" d="M6.5,14.249c-0.833-0.044-2.479-1.562-2.955-2.732h1.885
	C5.664,12.476,5.926,13.422,6.5,14.249z"/>
<path fill-rule="evenodd" clip-rule="evenodd" fill="#9E9E9E" d="M11.775,11.517c-0.692,1.262-1.585,2.266-3.014,2.791
	c0.597-0.878,0.872-1.816,1.101-2.791H11.775z"/>
<path fill-rule="evenodd" clip-rule="evenodd" fill="#9E9E9E" d="M13.61,11.507c-0.829,1.065-1.813,1.84-2.998,2.354
	c0.152-0.165,0.306-0.33,0.459-0.495c0.472-0.503,0.864-1.066,1.172-1.685c0.069-0.138,0.147-0.184,0.298-0.179
	C12.879,11.517,13.219,11.507,13.61,11.507z"/>
<path fill-rule="evenodd" clip-rule="evenodd" fill="#9E9E9E" d="M4.684,13.837c-1.193-0.497-2.175-1.268-2.996-2.33
	c0.43,0,0.816-0.003,1.203,0.003c0.041,0.002,0.096,0.058,0.119,0.103C3.439,12.449,3.982,13.198,4.684,13.837z"/>
</svg>
