<?xml version="1.0" encoding="utf-8"?>
<!-- Generator: Adobe Illustrator 16.0.0, SVG Export Plug-In . SVG Version: 6.00 Build 0)  -->
<!DOCTYPE svg PUBLIC "-//W3C//DTD SVG 1.1//EN" "http://www.w3.org/Graphics/SVG/1.1/DTD/svg11.dtd">
<svg version="1.1" id="Layer_1" xmlns="http://www.w3.org/2000/svg" xmlns:xlink="http://www.w3.org/1999/xlink" x="0px" y="0px"
	 width="14px" height="12.313px" viewBox="0 0 14 12.313" enable-background="new 0 0 14 12.313" xml:space="preserve">
<path fill="#027BFF" d="M3.888,0.382c-0.125-0.125-0.328-0.126-0.454,0c0,0,0,0-0.001,0L1.731,2.074L1.125,1.483
	C0.999,1.357,0.796,1.357,0.67,1.482c0,0,0,0.001,0,0.001l-0.42,0.42c-0.125,0.125-0.126,0.328,0,0.454h0l1.272,1.268
	c0.132,0.125,0.339,0.125,0.471,0L2.41,3.208l1.93-1.93C4.465,1.152,4.466,0.95,4.342,0.823L3.888,0.382z M3.888,4.638
	C3.763,4.512,3.56,4.512,3.434,4.637c0,0,0,0.001-0.001,0.001L1.731,6.341L1.125,5.75c-0.125-0.125-0.329-0.125-0.454,0l0,0
	L0.25,6.17c-0.125,0.125-0.126,0.328,0,0.454l0,0.001l1.269,1.27c0.132,0.125,0.339,0.125,0.471,0l0.419-0.42l1.93-1.931
	c0.125-0.125,0.126-0.326,0.002-0.452L3.888,4.638z M1.867,9.271c-0.708,0-1.299,0.574-1.299,1.283c0,0.707,0.592,1.283,1.299,1.283
	c0.708,0,1.283-0.576,1.283-1.283C3.15,9.846,2.575,9.271,1.867,9.271z M13.416,9.699h-7.7c-0.236,0-0.428,0.191-0.428,0.428v0.855
	c0,0.236,0.191,0.428,0.428,0.428h7.7c0.235,0,0.428-0.191,0.428-0.428v-0.855C13.844,9.891,13.651,9.699,13.416,9.699z
	 M13.416,1.144h-7.7c-0.236,0-0.428,0.191-0.428,0.428v0.855c0,0.236,0.191,0.428,0.428,0.428h7.7c0.235,0,0.428-0.192,0.428-0.428
	V1.572C13.844,1.335,13.651,1.144,13.416,1.144z M13.416,5.421h-7.7c-0.236,0-0.428,0.191-0.428,0.428v0.855
	c0,0.236,0.191,0.428,0.428,0.428h7.7c0.235,0,0.428-0.192,0.428-0.428V5.849C13.844,5.612,13.651,5.421,13.416,5.421z"/>
</svg>
