<svg enable-background="new 0 0 100 100" fill="#D9D9D9" viewBox="0 0 100 100" xmlns="http://www.w3.org/2000/svg"><g id="Layer_1"/><g id="dots-full"><path d="m50 29.167c-4.596 0-8.333-3.737-8.333-8.333s3.737-8.334 8.333-8.334c4.594 0 8.333 3.737 8.333 8.333s-3.739 8.334-8.333 8.334zm0-8.334h.041zm0 0h.041zm0 0h.041zm0-.002h.041zm0 0h.041zm0-.002h.041zm0 0h.041zm0 0h.041zm0 66.671c-4.596 0-8.333-3.739-8.333-8.333s3.737-8.333 8.333-8.333c4.594 0 8.333 3.739 8.333 8.333s-3.739 8.333-8.333 8.333zm0-8.337v.004zm0-20.83c-4.596 0-8.333-3.739-8.333-8.333 0-4.596 3.737-8.333 8.333-8.333 4.594 0 8.333 3.737 8.333 8.333 0 4.594-3.739 8.333-8.333 8.333zm0-8.333h.041zm0 0h.041zm0 0h.041zm0-.002h.041zm0 0h.041zm0-.002h.041zm0 0h.041zm0 0h.041zm0-20.829c-4.596 0-8.333-3.737-8.333-8.333s3.737-8.334 8.333-8.334c4.594 0 8.333 3.737 8.333 8.333s-3.739 8.334-8.333 8.334zm0-8.334h.041zm0 0h.041zm0 0h.041zm0-.002h.041zm0 0h.041zm0-.002h.041zm0 0h.041zm0 0h.041zm-29.167 8.338c-4.596 0-8.333-3.737-8.333-8.333s3.737-8.333 8.333-8.333 8.333 3.737 8.333 8.333-3.737 8.333-8.333 8.333zm0-8.334h.041zm0 0h.041zm0 0h.041zm0-.002h.041zm0 0h.041zm0-.002h.041zm0 0h.041zm0 0h.041zm0 8.338c-4.596 0-8.333-3.737-8.333-8.333s3.737-8.333 8.333-8.333 8.333 3.737 8.333 8.333-3.737 8.333-8.333 8.333zm0-8.334h.041zm0 0h.041zm0 0h.041zm0-.002h.041zm0 0h.041zm0-.002h.041zm0 0h.041zm0 0h.041zm29.167 66.671c-4.596 0-8.333-3.739-8.333-8.333s3.737-8.333 8.333-8.333c4.594 0 8.333 3.739 8.333 8.333s-3.739 8.333-8.333 8.333zm0-8.337v.004zm-20.833-29.163c0-4.596-3.737-8.333-8.333-8.333s-8.334 3.737-8.334 8.333c0 4.594 3.737 8.333 8.333 8.333s8.334-3.739 8.334-8.333zm58.333 0c0-4.596-3.739-8.333-8.333-8.333s-8.333 3.737-8.333 8.333c0 4.594 3.739 8.333 8.333 8.333s8.333-3.739 8.333-8.333zm-58.333 0c0-4.596-3.737-8.333-8.333-8.333s-8.334 3.737-8.334 8.333c0 4.594 3.737 8.333 8.333 8.333s8.334-3.739 8.334-8.333zm0 29.167c0-4.594-3.737-8.333-8.333-8.333s-8.334 3.739-8.334 8.333 3.737 8.333 8.333 8.333 8.334-3.739 8.334-8.333zm0 0c0-4.594-3.737-8.333-8.333-8.333s-8.334 3.739-8.334 8.333 3.737 8.333 8.333 8.333 8.334-3.739 8.334-8.333zm50-50c-4.594 0-8.333-3.737-8.333-8.333s3.739-8.333 8.333-8.333 8.333 3.737 8.333 8.333-3.739 8.333-8.333 8.333zm0-8.34v.006zm0 8.34c-4.594 0-8.333-3.737-8.333-8.333s3.739-8.333 8.333-8.333 8.333 3.737 8.333 8.333-3.739 8.333-8.333 8.333zm0-8.34v.006zm8.333 58.34c0-4.594-3.739-8.333-8.333-8.333s-8.333 3.739-8.333 8.333 3.739 8.333 8.333 8.333 8.333-3.739 8.333-8.333zm0 0c0-4.594-3.739-8.333-8.333-8.333s-8.333 3.739-8.333 8.333 3.739 8.333 8.333 8.333 8.333-3.739 8.333-8.333zm0-29.167c0-4.596-3.739-8.333-8.333-8.333s-8.333 3.737-8.333 8.333c0 4.594 3.739 8.333 8.333 8.333s8.333-3.739 8.333-8.333zm-37.5 8.333c-4.596 0-8.333-3.739-8.333-8.333 0-4.596 3.737-8.333 8.333-8.333 4.594 0 8.333 3.737 8.333 8.333 0 4.594-3.739 8.333-8.333 8.333zm0-8.333h.041zm0 0h.041zm0 0h.041zm0-.002h.041zm0 0h.041zm0-.002h.041zm0 0h.041zm0 0h.041z"/></g></svg>
