<svg id="instruction" viewBox="0 0 32 32" xmlns="http://www.w3.org/2000/svg"><path d="m19.7178 7.3006h-8.7431c-.4206 0-.7619-.3413-.7619-.7619s.3413-.7619.7619-.7619h8.7431c.4206 0 .7619.3413.7619.7619s-.3413.7619-.7619.7619z"/><path d="m15.6543 9.8403h-4.6796c-.4206 0-.7619-.3413-.7619-.7619s.3413-.7619.7619-.7619h4.6796c.4206 0 .7619.3413.7619.7619s-.3413.7619-.7619.7619z"/><path d="m7.8512 10.4177h-3.6959c-.4206 0-.7619-.3413-.7619-.7619v-3.6954c0-.4206.3413-.7619.7619-.7619h3.6959c.4206 0 .7619.3413.7619.7619v3.6954c0 .4206-.3413.7619-.7619.7619zm-2.934-1.5238h2.1721v-2.1716h-2.1721z"/><path d="m15.0045 15.4921h-4.0332c-.4206 0-.7619-.3413-.7619-.7619s.3413-.7619.7619-.7619h4.0332c.4206 0 .7619.3413.7619.7619s-.3413.7619-.7619.7619z"/><path d="m12.7659 18.0317h-1.7912c-.4206 0-.7619-.3413-.7619-.7619s.3413-.7619.7619-.7619h1.7912c.4206 0 .7619.3413.7619.7619s-.3413.7619-.7619.7619z"/><path d="m7.8512 18.6101h-3.6959c-.4206 0-.7619-.3413-.7619-.7619v-3.6964c0-.4206.3413-.7619.7619-.7619h3.6959c.4206 0 .7619.3413.7619.7619v3.6964c0 .4206-.3413.7619-.7619.7619zm-2.934-1.5238h2.1721v-2.1726h-2.1721z"/><path d="m11.9464 23.6796h-.9752c-.4206 0-.7619-.3413-.7619-.7619s.3413-.7619.7619-.7619h.9752c.4206 0 .7619.3413.7619.7619s-.3413.7619-.7619.7619z"/><path d="m12.4241 26.2192h-1.4529c-.4206 0-.7619-.3413-.7619-.7619s.3413-.7619.7619-.7619h1.4529c.4206 0 .7619.3413.7619.7619s-.3413.7619-.7619.7619z"/><path d="m7.8512 26.8016h-3.6959c-.4206 0-.7619-.3413-.7619-.7619v-3.6954c0-.4206.3413-.7619.7619-.7619h3.6959c.4206 0 .7619.3413.7619.7619v3.6954c0 .4206-.3413.7619-.7619.7619zm-2.934-1.5238h2.1721v-2.1716h-2.1721z"/><path d="m14.7401 32h-11.9464c-1.5407 0-2.7937-1.253-2.7937-2.7937v-26.4126c0-1.5407 1.253-2.7937 2.7937-2.7937h18.2857c1.5407 0 2.7937 1.253 2.7937 2.7937v8.1369c0 .4206-.3413.7619-.7619.7619s-.7619-.3413-.7619-.7619v-8.1369c0-.7004-.5694-1.2698-1.2698-1.2698h-18.2858c-.7004 0-1.2698.5694-1.2698 1.2698v26.4126c0 .7004.5694 1.2698 1.2698 1.2698h11.9464c.4206 0 .7619.3413.7619.7619s-.3413.7619-.7619.7619z"/><path d="m22.6032 25.8839c-.4206 0-.7619-.3413-.7619-.7619v-.8591c0-.6875.3661-1.3343.9554-1.6875l.8075-.4851c.4975-.2986.807-.8442.807-1.4246v-.1696c0-.997-.811-1.8085-1.808-1.8085s-1.808.8115-1.808 1.8085c0 .4206-.3413.7619-.7619.7619s-.7619-.3413-.7619-.7619c0-1.8373 1.4945-3.3323 3.3318-3.3323s3.3318 1.495 3.3318 3.3323v.1696c0 1.1121-.5928 2.1587-1.5466 2.7312l-.8075.4851c-.1329.0794-.2158.2252-.2158.381v.8591c0 .4206-.3413.7619-.7619.7619z"/><path d="m22.6032 32c-5.1815 0-9.3968-4.2153-9.3968-9.3968s4.2153-9.3968 9.3968-9.3968 9.3968 4.2153 9.3968 9.3968-4.2153 9.3968-9.3968 9.3968zm0-17.2698c-4.3413 0-7.873 3.5317-7.873 7.873s3.5317 7.873 7.873 7.873 7.873-3.5317 7.873-7.873-3.5317-7.873-7.873-7.873z"/><circle cx="22.603" cy="27.28" r=".758"/></svg>