<?xml version="1.0" encoding="UTF-8"?>
<svg id="Layer_1" xmlns="http://www.w3.org/2000/svg" version="1.1" viewBox="0 0 512 512">
  <!-- Generator: Adobe Illustrator 29.3.1, SVG Export Plug-In . SVG Version: 2.1.0 Build 151)  -->
  <defs>
    <style>
      .st0 {
        fill-rule: evenodd;
      }
    </style>
  </defs>
  <g id="Icon">
    <path class="st0" d="M245.3,432.3H62.9c-1.1,0-2.2-.5-3-1.3-.8-.8-1.3-1.9-1.3-3v-30.9c0-17.7,12.7-33.3,32.1-46.6,34.8-23.8,91.2-38.7,154.5-38.7s16-7.2,16-16-7.2-16-16-16c-70.9,0-133.6,17.7-172.6,44.3-29.7,20.3-46.1,46-46.1,73v31c0,9.6,3.8,18.8,10.6,25.6,6.8,6.8,16,10.6,25.6,10.6h182.4c8.8,0,16-7.2,16-16s-7.2-16-16-16h0Z"/>
    <path class="st0" d="M245.3,26.7c-64.8,0-117.3,52.6-117.3,117.3s52.6,117.3,117.3,117.3,117.3-52.6,117.3-117.3-52.6-117.3-117.3-117.3ZM245.3,58.7c47.1,0,85.3,38.2,85.3,85.3s-38.2,85.3-85.3,85.3-85.3-38.2-85.3-85.3,38.2-85.3,85.3-85.3Z"/>
    <path class="st0" d="M373.3,261.3c-61.8,0-112,50.2-112,112s50.2,112,112,112,112-50.2,112-112-50.2-112-112-112ZM373.3,293.3c44.2,0,80,35.8,80,80s-35.8,80-80,80-80-35.8-80-80,35.8-80,80-80Z"/>
  </g>
  <path d="M373.3,406.7c-1.8,0-3.5-.7-4.9-2l-42.4-42.4c-2.7-2.7-2.7-7.1,0-9.8,2.7-2.7,7.1-2.7,9.8,0l37.5,37.5,37.5-37.5c2.7-2.7,7.1-2.7,9.8,0,2.7,2.7,2.7,7.1,0,9.8l-42.4,42.4c-1.3,1.3-3.1,2-4.9,2Z"/>
</svg>