<svg id="Layer_1" data-name="Layer 1" xmlns="http://www.w3.org/2000/svg" viewBox="0 0 45 51"><defs><style>.cls-1{fill:#0098aa;}</style></defs><path class="cls-1" d="M10.41,34.92H5A.56.56,0,0,0,5,36h5.42a.56.56,0,0,0,0-1.11Z"/><path class="cls-1" d="M10.41,36.53H5a1.06,1.06,0,0,1,0-2.11h5.42a1.06,1.06,0,0,1,0,2.11ZM5,35.42v.11h5.41v-.11Z"/><path class="cls-1" d="M10.41,31.08H5a.55.55,0,0,0-.52.56.54.54,0,0,0,.52.55h5.42a.54.54,0,0,0,.52-.55A.55.55,0,0,0,10.41,31.08Z"/><path class="cls-1" d="M10.41,32.69H5a1.06,1.06,0,0,1,0-2.11h5.42a1.06,1.06,0,0,1,0,2.11ZM5,31.58v.12h5.41v-.12Z"/><path class="cls-1" d="M10.65,27.26H4.82c-.19,0-.35.24-.35.55s.16.56.35.56h5.83c.2,0,.35-.25.35-.56S10.85,27.26,10.65,27.26Z"/><path class="cls-1" d="M10.65,28.78H4.82c-.43,0-.75-.42-.75-1s.32-1,.75-1h5.83a.86.86,0,0,1,.76,1C11.41,28.36,11.08,28.78,10.65,28.78ZM4.91,28h5.66a.49.49,0,0,0,0-.15.46.46,0,0,0,0-.14H4.91a.26.26,0,0,0,0,.14A.28.28,0,0,0,4.91,28Z"/><path class="cls-1" d="M10.65,23.43H4.82c-.19,0-.35.25-.35.56s.16.55.35.55h5.83c.2,0,.35-.25.35-.55S10.85,23.43,10.65,23.43Z"/><path class="cls-1" d="M10.65,25H4.82c-.43,0-.75-.42-.75-1s.32-1,.75-1h5.83c.43,0,.76.42.76,1A.86.86,0,0,1,10.65,25Zm-5.74-.82h5.66a.46.46,0,0,0,0-.14.49.49,0,0,0,0-.15H4.91a.28.28,0,0,0,0,.15A.26.26,0,0,0,4.91,24.13Z"/><path class="cls-1" d="M13.72,19.6H5a.54.54,0,0,0-.52.55.55.55,0,0,0,.52.56h8.73a.54.54,0,0,0,.52-.56A.53.53,0,0,0,13.72,19.6Z"/><path class="cls-1" d="M13.72,21.21H5A1.06,1.06,0,0,1,5,19.1h8.73a1.06,1.06,0,0,1,0,2.11ZM5,20.09v.12h8.72v-.12Z"/><path class="cls-1" d="M23.4,46.39H6.15a1.06,1.06,0,1,0,0,2.11H23.41a1.06,1.06,0,1,0,0-2.11Z"/><path class="cls-1" d="M38.4,46.39H21.15a1.06,1.06,0,1,0,0,2.11H38.41a1.06,1.06,0,1,0,0-2.11Z"/><path class="cls-1" d="M44.48,42.92H43.36a2.43,2.43,0,0,0,.36-1.29V24.43A2.35,2.35,0,0,0,41.46,22H35V20.4A1.34,1.34,0,0,0,33.7,19H28.65V11.38a.59.59,0,0,0-.15-.4L20.25,2.17A.5.5,0,0,0,19.88,2H3A2.07,2.07,0,0,0,1,4.13v34a2.07,2.07,0,0,0,2,2.13h12.4v1.37a2.56,2.56,0,0,0,.36,1.3H1.5V44h43a.54.54,0,0,0,.52-.55A.55.55,0,0,0,44.48,42.92ZM33.7,20.13a.27.27,0,0,1,.26.27V22h-8.8V20.4a.26.26,0,0,1,.25-.27ZM20.4,3.91l6.47,6.91H21.35a1,1,0,0,1-1-1Zm-5,20.52v14.7H3a1,1,0,0,1-1-1v-34a1,1,0,0,1,1-1H19.36V9.8a2.07,2.07,0,0,0,2,2.13h6.26V19h-2.2a1.34,1.34,0,0,0-1.3,1.39V22H17.65A2.35,2.35,0,0,0,15.39,24.43Zm27.28,17.2a1.26,1.26,0,0,1-1.21,1.3H17.65a1.26,1.26,0,0,1-1.21-1.3V29.94a20.82,20.82,0,0,0,10.3,3.51v2a.53.53,0,0,0,.52.55h4.59a.53.53,0,0,0,.52-.55v-2a20.86,20.86,0,0,0,10.3-3.51Zm-14.89-6.7V31.14h3.55v3.79Zm14.9-6.38c-2.33,2-6.1,3.35-10.3,3.78V30.58a.54.54,0,0,0-.52-.55h-4.6a.54.54,0,0,0-.52.55v1.75c-4.23-.42-7.94-1.76-10.3-3.78V24.43a1.27,1.27,0,0,1,1.22-1.3H41.48a1.27,1.27,0,0,1,1.2,1.3Z"/><path class="cls-1" d="M44.48,44.54H1V42.43H15a3.09,3.09,0,0,1-.11-.8v-.87H3A2.57,2.57,0,0,1,.5,38.13v-34A2.57,2.57,0,0,1,3,1.5H19.88a1,1,0,0,1,.74.34l8.24,8.8a1.06,1.06,0,0,1,.29.74v7.13H33.7a1.85,1.85,0,0,1,1.8,1.89v1.11h6a2.85,2.85,0,0,1,2.76,2.92v17.2a3,3,0,0,1-.11.79h.37a1,1,0,0,1,1,1.07A1,1,0,0,1,44.48,44.54ZM2,43.54H44.48v-.12h-2l.48-.76a2,2,0,0,0,.28-1V24.43a1.85,1.85,0,0,0-1.76-1.92h-7V20.4a.85.85,0,0,0-.8-.89H28.15V11.38L19.89,2.51H3A1.57,1.57,0,0,0,1.5,4.13v34A1.57,1.57,0,0,0,3,39.76h12.9v1.87a2,2,0,0,0,.29,1l.45.76H2Zm15.65-.11a1.75,1.75,0,0,1-1.71-1.8V29l.8.59A20.24,20.24,0,0,0,26.79,33l.45,0v2.49l4.61,0,0-2.54.45,0a20.31,20.31,0,0,0,10-3.41l.8-.59V41.63a1.75,1.75,0,0,1-1.7,1.8Zm-.71-12.54V41.63a.76.76,0,0,0,.72.8h23.8a.76.76,0,0,0,.71-.8V30.89a22.1,22.1,0,0,1-9.3,3v1.59a1,1,0,0,1-1,1H27.26a1,1,0,0,1-1-1V33.9A22,22,0,0,1,16.94,30.89Zm-1.05,8.74H3a1.48,1.48,0,0,1-1.45-1.51v-34A1.48,1.48,0,0,1,3,2.62H19.86V9.8a1.57,1.57,0,0,0,1.49,1.63h6.76v8.08h-2.7a.85.85,0,0,0-.8.89v2.11h-7a1.85,1.85,0,0,0-1.76,1.92ZM3,3.62a.49.49,0,0,0-.45.51v34a.48.48,0,0,0,.45.51h11.9V24.43a2.85,2.85,0,0,1,2.76-2.92h6V20.4a1.85,1.85,0,0,1,1.8-1.89h1.7V12.43H21.35A2.57,2.57,0,0,1,18.86,9.8V3.62ZM31.83,35.43H27.28V30.64h4.55Zm-3.55-1h2.55V31.64H28.28Zm3.6-1.55v-2.3l-4.62,0,0,2.35-.55-.05c-4.39-.44-8.15-1.82-10.57-3.9l-.18-.15V24.43a1.76,1.76,0,0,1,1.72-1.8H41.48a1.78,1.78,0,0,1,1.7,1.8v4.35l-.18.15c-2.38,2-6.23,3.45-10.57,3.9ZM16.94,28.32a18.22,18.22,0,0,0,9.3,3.45V30.58a1,1,0,0,1,1-1h4.6a1,1,0,0,1,1,1v1.19a18.72,18.72,0,0,0,9.3-3.45V24.43a.77.77,0,0,0-.7-.8H17.66a.78.78,0,0,0-.72.8Zm17.52-5.81h-9.8V20.4a.77.77,0,0,1,.75-.77H33.7a.77.77,0,0,1,.76.77Zm-8.8-1h7.8v-.88h-7.8ZM28,11.32H21.35A1.48,1.48,0,0,1,19.9,9.81V2.65ZM20.9,5.17V9.81a.48.48,0,0,0,.45.51h4.37Z"/></svg>