<?xml version="1.0" encoding="utf-8"?>
<!-- Generator: Adobe Illustrator 24.1.2, SVG Export Plug-In . SVG Version: 6.00 Build 0)  -->
<svg version="1.1" id="Icon" xmlns="http://www.w3.org/2000/svg" xmlns:xlink="http://www.w3.org/1999/xlink" x="0px" y="0px"
	 viewBox="0 0 21.8 21.8" style="enable-background:new 0 0 21.8 21.8;" xml:space="preserve">
<g id="Ikon_1_" fill="#000000" stroke="none">
	<path id="Path_195_1_" class="st0" d="M21.8,10.9c0-2.2-0.7-4.4-2-6.2C16.4-0.3,9.6-1.5,4.7,2V1.6c0-0.4-0.3-0.8-0.8-0.8
		S3.1,1.1,3.1,1.6v2.3c0,0.4,0.4,0.8,0.8,0.8h2.3C6.6,4.7,7,4.3,7,3.9c0-0.4-0.3-0.8-0.8-0.8H5.7c1.5-1,3.3-1.6,5.2-1.6
		c5.2,0,9.3,4.2,9.3,9.4c0,5.2-4.2,9.3-9.4,9.3c-5.2,0-9.3-4.2-9.3-9.4c0-0.4-0.3-0.8-0.8-0.8c-0.4,0-0.8,0.3-0.8,0.8
		c0,6,4.9,10.9,10.9,10.9S21.8,16.9,21.8,10.9L21.8,10.9z"/>
	<path class="st0" d="M10.9,3.9c-3.9,0-7,3.1-7,7c0,3.9,3.1,7,7,7c3.9,0,7-3.1,7-7C17.9,7,14.7,3.9,10.9,3.9z M15.4,11.8h-3.6v3.6
		c0,0.2,0,0.3-0.1,0.4c-0.1,0.3-0.5,0.5-0.8,0.5c-0.4,0-0.7-0.3-0.8-0.6c0-0.1-0.1-0.2-0.1-0.3v-3.6H6.3c-0.1,0-0.3,0-0.4-0.1
		c-0.3-0.1-0.5-0.5-0.5-0.8c0-0.4,0.2-0.7,0.5-0.8C6.1,10,6.2,10,6.3,10H10V6.3C10,6.2,10,6.1,10,6c0.1-0.3,0.5-0.6,0.8-0.6
		c0.3,0,0.6,0.2,0.8,0.5c0.1,0.1,0.1,0.3,0.1,0.5V10h3.6c0.5,0,0.9,0.4,0.9,0.9S15.9,11.8,15.4,11.8z"/>
</g>
</svg>
