<?xml version="1.0" encoding="utf-8"?>
<!-- Generator: Adobe Illustrator 27.9.0, SVG Export Plug-In . SVG Version: 6.00 Build 0)  -->
<svg version="1.1" id="Layer_1" xmlns="http://www.w3.org/2000/svg" xmlns:xlink="http://www.w3.org/1999/xlink" x="0px" y="0px"
	 viewBox="0 0 29.89 35" style="enable-background:new 0 0 29.89 35;" xml:space="preserve">
<style type="text/css">
	.st0{fill:#3C77BC;}
</style>
<g>
	<g>
		<path class="st0" d="M7.13,22.71c0.01-4.2,3.39-7.56,7.6-7.54c4.19,0.02,7.56,3.38,7.53,7.57c-0.03,4.45-3.37,7-6.19,7.47
			c-2.56,0.42-4.88-0.25-6.74-2.13C7.87,26.59,7.13,24.79,7.13,22.71z M20.06,22.72c0-1.48-0.53-2.76-1.58-3.78
			c-1.4-1.37-3.09-1.83-5.01-1.42c-1.93,0.41-4.15,2.3-4.13,5.24c0.02,2.99,2.4,5.35,5.36,5.35C17.66,28.1,20.09,25.66,20.06,22.72z
			"/>
		<path class="st0" d="M15.96,21.48c0,0.68,0,1.37,0,2.05c0,0.38-0.08,0.46-0.47,0.46c-0.95,0-1.89,0-2.84,0
			c-0.38,0-0.46-0.08-0.47-0.46c-0.02-0.8-0.02-0.8,0.79-0.8c0.48,0,0.97-0.02,1.45,0.01c0.25,0.01,0.29-0.08,0.29-0.3
			c-0.01-1-0.01-2,0-3c0-0.43,0.06-0.49,0.49-0.49c0.76,0,0.76,0,0.76,0.76C15.96,20.3,15.96,20.89,15.96,21.48z"/>
	</g>
	<path class="st0" d="M0.09,17.47c0-4.95,0-9.9,0-14.85c0-1.62,0.64-2.26,2.25-2.26c5.44,0,10.88,0.01,16.32-0.01
		c1.47,0,2.7,0.53,3.73,1.55c1.85,1.84,3.69,3.69,5.53,5.53c0.98,0.98,1.49,2.17,1.49,3.56c0,7.15,0,14.3,0,21.45
		c0,1.49-0.66,2.13-2.13,2.13c-8.35,0-16.7,0-25.06,0c-1.47,0-2.12-0.65-2.13-2.13C0.08,27.45,0.09,22.46,0.09,17.47z M26.95,12.57
		c-0.27,0-0.49,0-0.72,0c-2.28,0-4.56,0-6.84,0c-1.55,0-2.18-0.62-2.19-2.19c-0.01-2.28,0-4.56,0-6.84c0-0.24,0-0.47,0-0.72
		c-4.94,0-9.78,0-14.66,0c0,9.77,0,19.51,0,29.29c8.15,0,16.26,0,24.4,0C26.95,25.6,26.95,19.13,26.95,12.57z M19.67,3.01
		c0,2.4,0,4.74,0,7.1c2.39,0,4.72,0,7.06,0C26.57,9.35,20.63,3.34,19.67,3.01z"/>
</g>
</svg>
