<svg width="21" height="22" viewBox="0 0 21 22" fill="none" xmlns="http://www.w3.org/2000/svg">
<path d="M7.03071 14.2977C4.44565 14.2977 2.34277 12.1949 2.34277 9.60981C2.34277 7.02475 4.44565 4.92188 7.03071 4.92188C9.61577 4.92188 11.7186 7.02475 11.7186 9.60981C11.7186 12.1949 9.61577 14.2977 7.03071 14.2977ZM7.03071 6.02729C5.05521 6.02729 3.44819 7.63432 3.44819 9.60981C3.44819 11.5853 5.05521 13.1923 7.03071 13.1923C9.00621 13.1923 10.6132 11.5853 10.6132 9.60981C10.6132 7.63432 9.00621 6.02729 7.03071 6.02729Z" fill="#000000"/>
<path d="M7.03062 12.3728C5.50672 12.3728 4.26709 11.1331 4.26709 9.60924C4.26709 8.08534 5.50672 6.8457 7.03062 6.8457C8.55453 6.8457 9.79416 8.08534 9.79416 9.60924C9.79416 11.1331 8.55453 12.3728 7.03062 12.3728ZM7.03062 7.95112C6.11628 7.95112 5.3725 8.69489 5.3725 9.60924C5.3725 10.5236 6.11628 11.2674 7.03062 11.2674C7.94497 11.2674 8.68875 10.5236 8.68875 9.60924C8.68875 8.69489 7.94497 7.95112 7.03062 7.95112Z" fill="#000000"/>
<path d="M1.4487 16.6423C1.06259 16.6423 0.698441 16.4922 0.423167 16.2198C-0.141055 15.6488 -0.140336 14.7308 0.421008 14.1688L3.15252 11.4409C3.3677 11.2257 3.71818 11.225 3.93408 11.4416C4.14962 11.6575 4.14962 12.0072 3.93336 12.2231L1.20257 14.9507C1.06763 15.0856 1.06871 15.3001 1.20509 15.4383C1.32888 15.561 1.55917 15.5675 1.68655 15.4383L4.41806 12.7064C4.63396 12.4905 4.98372 12.4905 5.19962 12.7064C5.41552 12.9223 5.41553 13.2721 5.19962 13.488L2.47027 16.2177C2.2004 16.4908 1.83696 16.6423 1.4487 16.6423Z" fill="#000000"/>
<path d="M10.4985 20.3958H5.70841C4.79407 20.3958 4.05029 19.652 4.05029 18.7377V13.3027C4.05029 12.9976 4.29786 12.75 4.603 12.75C4.90814 12.75 5.15571 12.9976 5.15571 13.3027V18.7377C5.15571 19.0424 5.40363 19.2904 5.70841 19.2904H10.4985C10.8037 19.2904 11.0512 19.5379 11.0512 19.8431C11.0512 20.1482 10.8037 20.3958 10.4985 20.3958Z" fill="#000000"/>
<path d="M19.3419 14.1534C19.0367 14.1534 18.7891 13.9059 18.7891 13.6007V2.15617C18.7891 1.85139 18.5412 1.60346 18.2364 1.60346H5.70841C5.40363 1.60346 5.15571 1.85139 5.15571 2.15617V6.26477C5.15571 6.56991 4.90814 6.81747 4.603 6.81747C4.29786 6.81747 4.05029 6.56991 4.05029 6.26477V2.15617C4.05029 1.24182 4.79407 0.498047 5.70841 0.498047H18.2364C19.1508 0.498047 19.8946 1.24182 19.8946 2.15617V13.6007C19.8946 13.9059 19.647 14.1534 19.3419 14.1534Z" fill="#000000"/>
<path d="M13.8148 3.8144H10.1704C9.86524 3.8144 9.61768 3.56683 9.61768 3.26169C9.61768 2.95655 9.86524 2.70898 10.1704 2.70898H13.8148C14.1199 2.70898 14.3675 2.95655 14.3675 3.26169C14.3675 3.56683 14.1199 3.8144 13.8148 3.8144Z" fill="#000000"/>
<path d="M16.7626 7.65815H12.7094C12.4043 7.65815 12.1567 7.41058 12.1567 7.10544C12.1567 6.8003 12.4043 6.55273 12.7094 6.55273H16.7626C17.0678 6.55273 17.3153 6.8003 17.3153 7.10544C17.3153 7.41058 17.0678 7.65815 16.7626 7.65815Z" fill="#000000"/>
<path d="M16.7626 10.2363H13.2221C12.917 10.2363 12.6694 9.9887 12.6694 9.68357C12.6694 9.37843 12.917 9.13086 13.2221 9.13086H16.7626C17.0677 9.13086 17.3153 9.37843 17.3153 9.68357C17.3153 9.9887 17.0677 10.2363 16.7626 10.2363Z" fill="#000000"/>
<path d="M9.39293 18.1855H7.1821C6.87696 18.1855 6.62939 17.9379 6.62939 17.6328C6.62939 17.3276 6.87696 17.0801 7.1821 17.0801H9.39293C9.69807 17.0801 9.94564 17.3276 9.94564 17.6328C9.94564 17.9379 9.69807 18.1855 9.39293 18.1855Z" fill="#000000"/>
<path d="M16.0256 11.5527C13.2826 11.5527 11.0513 13.7841 11.0513 16.5271C11.0513 19.2701 13.2826 21.5015 16.0256 21.5015C18.7687 21.5015 21 19.2701 21 16.5271C21 13.7841 18.7687 11.5527 16.0256 11.5527ZM18.7194 15.444L15.7716 18.3918C15.6636 18.4997 15.5222 18.5537 15.3808 18.5537C15.2394 18.5537 15.098 18.4997 14.99 18.3918L13.3319 16.734C13.116 16.5181 13.116 16.1683 13.3319 15.9524C13.5478 15.7365 13.8976 15.7365 14.1135 15.9524L15.3808 17.2194L17.9378 14.6624C18.1537 14.4465 18.5035 14.4465 18.7194 14.6624C18.9353 14.8783 18.9353 15.2281 18.7194 15.444Z" fill="#000000"/>
</svg>
