<svg xmlns="http://www.w3.org/2000/svg" version="1.1" xmlns:xlink="http://www.w3.org/1999/xlink" width="512" height="512" x="0" y="0" viewBox="0 0 24 24" style="enable-background:new 0 0 512 512" xml:space="preserve" class=""><circle r="12" cx="12" cy="12" fill="#f5775c" shape="circle"></circle><g transform="matrix(0.7,0,0,0.7,3.5998570203781135,3.5999999463558208)"><path fill="#ffffff" fill-rule="evenodd" d="M3.037 3.528A3 3 0 0 1 6 1h8.172a3 3 0 0 1 2.12.879l3.83 3.828A3 3 0 0 1 21 7.828V17l1.6 1.2a1 1 0 0 1-1.2 1.6L3.412 6.309a.996.996 0 0 1-.022-.017L1.4 4.8a1 1 0 1 1 1.2-1.6zM5 5l14 10.5V8h-4a1 1 0 0 1-1-1V3H6a1 1 0 0 0-1 1zm-2 5v10a3 3 0 0 0 3 3h14a1 1 0 1 0 0-2H6a1 1 0 0 1-1-1V10a1 1 0 1 0-2 0z" clip-rule="evenodd" opacity="1" data-original="#160b34" class=""></path></g></svg>