<svg version="1.0" xmlns="http://www.w3.org/2000/svg"
 width="225.000000pt" height="225.000000pt" viewBox="0 0 225.000000 225.000000"
 preserveAspectRatio="xMidYMid meet">

<g transform="translate(0.000000,225.000000) scale(0.100000,-0.100000)"
fill="#000000" stroke="none">
<path d="M455 2228 c-81 -29 -164 -110 -191 -188 -18 -52 -19 -94 -19 -915 0
-803 1 -863 18 -912 33 -94 124 -175 227 -202 33 -9 212 -11 660 -9 l615 3 57
28 c72 35 141 110 165 180 17 48 18 96 18 597 0 543 0 545 -22 590 -16 32
-138 160 -410 431 -346 345 -393 388 -437 403 -42 13 -96 16 -335 15 -263 -1
-291 -2 -346 -21z m595 -445 c0 -303 1 -309 24 -358 28 -60 56 -87 116 -114
42 -19 65 -21 353 -21 l308 0 -3 -514 c-3 -504 -3 -515 -24 -543 -11 -15 -36
-38 -54 -50 l-33 -23 -612 0 -612 0 -33 23 c-18 12 -43 35 -54 50 -21 28 -21
34 -24 865 -1 460 0 851 3 869 7 40 49 91 90 109 22 10 97 13 293 14 l262 0 0
-307z m422 -70 c142 -142 258 -261 258 -266 0 -4 -108 -7 -240 -5 -234 3 -240
4 -262 26 -22 22 -23 28 -26 262 -2 132 1 240 5 240 4 0 124 -116 265 -257z"/>
</g>
</svg>
