<svg width="14" height="14" viewBox="0 0 14 14" fill="none" xmlns="http://www.w3.org/2000/svg">
<g clip-path="url(#clip0_222_1863)">
<path fill-rule="evenodd" clip-rule="evenodd" d="M3.763 0.587219C4.09101 0.258977 4.53596 0.0744505 5 0.0742188H9C9.46413 0.0742188 9.90925 0.258593 10.2374 0.586782C10.5656 0.914971 10.75 1.36009 10.75 1.82422V3.00022H12.5C12.8978 3.00022 13.2794 3.15825 13.5607 3.43956C13.842 3.72086 14 4.10239 14 4.50022V12.5002C14 12.898 13.842 13.2796 13.5607 13.5609C13.2794 13.8422 12.8978 14.0002 12.5 14.0002H1.5C1.10218 14.0002 0.720644 13.8422 0.43934 13.5609C0.158035 13.2796 0 12.898 0 12.5002L0 4.50022C0 4.10239 0.158035 3.72086 0.43934 3.43956C0.720644 3.15825 1.10218 3.00022 1.5 3.00022H3.25V1.82422C3.25 1.36022 3.434 0.914219 3.763 0.587219ZM9.25 1.82422V3.00022H4.75V1.82422C4.75 1.75791 4.77634 1.69433 4.82322 1.64744C4.87011 1.60056 4.9337 1.57422 5 1.57422H9C9.0663 1.57422 9.12989 1.60056 9.17678 1.64744C9.22366 1.69433 9.25 1.75791 9.25 1.82422ZM7.75 4.75022C7.75 4.55131 7.67098 4.36054 7.53033 4.21989C7.38968 4.07924 7.19891 4.00022 7 4.00022C6.80109 4.00022 6.61032 4.07924 6.46967 4.21989C6.32902 4.36054 6.25 4.55131 6.25 4.75022V5.26022C5.80905 5.30692 5.39914 5.50913 5.09373 5.83059C4.78831 6.15206 4.60736 6.57178 4.58329 7.01455C4.55922 7.45731 4.69361 7.89418 4.96237 8.24686C5.23114 8.59954 5.61671 8.84499 6.05 8.93922L7.524 9.26122C7.64617 9.28595 7.7547 9.35542 7.82831 9.45602C7.90192 9.55661 7.9353 9.68108 7.92191 9.80501C7.90851 9.92894 7.84931 10.0434 7.75591 10.1259C7.6625 10.2085 7.54164 10.2532 7.417 10.2512H6.583C6.47959 10.2511 6.37877 10.2189 6.29441 10.1591C6.21006 10.0993 6.14633 10.0148 6.112 9.91722C6.0457 9.72958 5.90757 9.57596 5.728 9.49016C5.54844 9.40437 5.34214 9.39341 5.1545 9.45972C4.96686 9.52602 4.81324 9.66415 4.72745 9.84372C4.64165 10.0233 4.6307 10.2296 4.697 10.4172C4.936 11.0912 5.527 11.6012 6.25 11.7222V12.2502C6.25 12.4491 6.32902 12.6399 6.46967 12.7805C6.61032 12.9212 6.80109 13.0002 7 13.0002C7.19891 13.0002 7.38968 12.9212 7.53033 12.7805C7.67098 12.6399 7.75 12.4491 7.75 12.2502V11.7222C8.20771 11.6444 8.6241 11.4097 8.92783 11.0586C9.23156 10.7074 9.40373 10.2616 9.41484 9.79744C9.42595 9.33329 9.27531 8.87972 8.98873 8.51444C8.70214 8.14915 8.29746 7.8949 7.844 7.79522L6.371 7.47322C6.28339 7.45343 6.20611 7.40212 6.15387 7.32905C6.10164 7.25598 6.0781 7.16625 6.08774 7.07695C6.09737 6.98765 6.13951 6.90501 6.20612 6.84476C6.27274 6.78451 6.35918 6.75086 6.449 6.75022H7.417C7.52029 6.75028 7.62102 6.78232 7.70536 6.84195C7.7897 6.90158 7.8535 6.98586 7.888 7.08322C7.92083 7.17613 7.97164 7.26166 8.03753 7.33494C8.10341 7.40821 8.18309 7.46779 8.272 7.51027C8.36091 7.55276 8.45732 7.57731 8.55572 7.58253C8.65412 7.58776 8.75259 7.57355 8.8455 7.54072C8.93841 7.50789 9.02394 7.45708 9.09722 7.39119C9.17049 7.32531 9.23007 7.24563 9.27255 7.15672C9.31504 7.06781 9.33959 6.9714 9.34482 6.873C9.35004 6.7746 9.33583 6.67613 9.303 6.58322C9.18387 6.24717 8.97707 5.94907 8.70402 5.7198C8.43097 5.49053 8.10159 5.33842 7.75 5.27922V4.75022Z" fill="#000000"/>
</g>
<defs>
<clipPath id="clip0_222_1863">
<rect width="14" height="14" fill="white"/>
</clipPath>
</defs>
</svg>
